<svg width="39" height="37" viewBox="0 0 39 37" fill="none" xmlns="http://www.w3.org/2000/svg">
<path d="M19.5 34.5625C30.2689 34.5625 39 26.9234 39 17.5C39 8.07663 30.2689 0.4375 19.5 0.4375C8.73112 0.4375 0 8.07663 0 17.5C0 21.79 1.81106 25.7144 4.80188 28.7125C4.56544 31.189 3.78544 33.9044 2.92256 35.9421C2.73 36.3955 3.10294 36.9025 3.588 36.8245C9.087 35.9226 12.3557 34.5381 13.7767 33.8166C15.6437 34.3146 17.5678 34.5653 19.5 34.5625ZM19.5 12.6079C23.556 8.43738 33.6984 15.7353 19.5 25.1172C5.30156 15.7328 15.444 8.43738 19.5 12.6079Z" fill="#ECC263"/>
</svg>
