<svg width="88" height="64" viewBox="0 0 88 64" fill="none" xmlns="http://www.w3.org/2000/svg">
<path d="M19.5 61.5625C8.73112 61.5625 0 53.9234 0 44.5C0 35.0766 8.73112 27.4375 19.5 27.4375C30.2689 27.4375 39 35.0766 39 44.5C39 48.79 37.1889 52.7144 34.1981 55.7125C34.4346 58.189 35.2146 60.9044 36.0774 62.9421C36.27 63.3955 35.8971 63.9025 35.412 63.8245C29.913 62.9226 26.6443 61.5381 25.2233 60.8166C23.3563 61.3146 21.4322 61.5653 19.5 61.5625ZM19.5 39.6079C15.444 35.4374 5.30156 42.7353 19.5 52.1172C33.6984 42.7328 23.556 35.4374 19.5 39.6079Z" fill="#ECC263"/>
<path fill-rule="evenodd" clip-rule="evenodd" d="M48.0803 39.6719C48.1232 39.2144 48.0667 38.7528 47.9148 38.3202C47.7628 37.8875 47.5193 37.4944 47.2014 37.1688C43.9551 33.8438 42.0625 29.5875 42.0625 25C42.0625 15.025 51.2622 6.25 63.5 6.25C75.7378 6.25 84.9375 15.025 84.9375 25C84.9375 34.9781 75.7378 43.75 63.5 43.75C61.3412 43.7532 59.1914 43.4674 57.1055 42.9C56.3766 42.7007 55.6012 42.783 54.9281 43.1313C53.7429 43.7438 51.1306 44.9125 46.8614 45.9219C47.457 43.8817 47.8651 41.7893 48.0803 39.6719ZM45.6303 49.3844L45.6916 49.3719C51.2959 48.2375 54.7198 46.7406 56.3123 45.9188C58.6569 46.5569 61.0734 46.8783 63.5 46.875C77.0301 46.875 88 37.0813 88 25C88 12.9188 77.0301 3.125 63.5 3.125C49.9699 3.125 39 12.9188 39 25C39 30.5 41.2754 35.5313 45.0331 39.375C44.7702 41.8441 44.2318 44.2744 43.4284 46.6188L43.4192 46.6531C43.1909 47.3246 42.9416 47.9885 42.6719 48.6438C42.43 49.225 42.8986 49.875 43.508 49.775C44.2175 49.6565 44.925 49.5263 45.6303 49.3844ZM63.5 18.7281C68.596 13.3813 81.3391 22.7375 63.5 34.7656C45.6609 22.7344 58.404 13.3813 63.5 18.7281Z" fill="#ECC263"/>
</svg>
