<svg width="40" height="40" viewBox="0 0 40 40" fill="none" xmlns="http://www.w3.org/2000/svg">
<g clip-path="url(#clip0_8_485)">
<path d="M19.8032 36.6357C30.2952 36.7599 38.89 29.4179 38.9987 20.2368C39.1074 11.0557 30.6889 3.51226 20.1969 3.38801C9.7049 3.26375 1.1101 10.6057 1.00137 19.7869C0.951874 23.9666 2.6711 27.8109 5.55042 30.7665C5.29149 33.1766 4.50021 35.8132 3.63601 37.7886C3.44317 38.2281 3.80067 38.7263 4.27416 38.6559C9.64219 37.8407 12.8428 36.5295 14.2357 35.8429C16.0488 36.3496 17.9206 36.6161 19.8032 36.6357ZM20.0565 15.2456C24.0563 11.229 33.8538 18.4563 19.9122 27.4332C6.18703 18.1263 16.1529 11.1354 20.0565 15.2456Z" fill="#ECC263"/>
</g>
<defs>
<clipPath id="clip0_8_485">
<rect width="38" height="38" fill="white" transform="translate(1.22632 0.788181) rotate(0.678499)"/>
</clipPath>
</defs>
</svg>
