<svg width="38" height="38" viewBox="0 0 38 38" fill="none" xmlns="http://www.w3.org/2000/svg">
<path d="M19 35.625C29.4928 35.625 38 28.1818 38 19C38 9.81825 29.4928 2.375 19 2.375C8.50725 2.375 0 9.81825 0 19C0 23.18 1.76463 27.0038 4.67875 29.925C4.44838 32.338 3.68837 34.9838 2.84763 36.9693C2.66 37.411 3.02338 37.905 3.496 37.829C8.854 36.9503 12.0389 35.6013 13.4235 34.8983C15.2425 35.3834 17.1174 35.6277 19 35.625ZM19 14.2334C22.952 10.1698 32.8344 17.2805 19 26.4219C5.16563 17.2781 15.048 10.1698 19 14.2334Z" fill="#2B3445"/>
</svg>
