<svg width="45" height="45" viewBox="0 0 45 45" fill="none" xmlns="http://www.w3.org/2000/svg">
<path fill-rule="evenodd" clip-rule="evenodd" d="M20.4278 5.87581C21.063 5.40056 21.842 5.15014 22.6418 5.16414C23.4416 5.17814 24.2164 5.45576 24.8438 5.9531L39.8256 17.8264C41.1712 18.8953 40.406 21.0279 38.6943 20.9979L36.9016 20.9665L36.7875 35.2113C36.7799 36.1557 36.3938 37.0549 35.714 37.711C35.0343 38.367 34.1166 38.7262 33.1628 38.7095L11.5862 38.3318C10.6325 38.3151 9.72082 37.9239 9.05177 37.2443C8.38273 36.5646 8.01111 35.6522 8.01868 34.7077L8.13282 20.463L6.34016 20.4316C4.62662 20.4016 3.89943 18.2412 5.25991 17.2232L20.4278 5.87759L20.4278 5.87581ZM11.08 17.3536C11.4891 17.6902 11.7476 18.1987 11.743 18.7631L11.6148 34.7707L33.1914 35.1483L33.3196 19.1408C33.3242 18.5763 33.5907 18.077 34.0051 17.7548L22.6133 8.72601L11.08 17.3536Z" fill="#ECC263"/>
</svg>
