<svg width="43" height="43" viewBox="0 0 43 43" fill="none" xmlns="http://www.w3.org/2000/svg">
<path fill-rule="evenodd" clip-rule="evenodd" d="M19.3002 4.81601C19.9292 4.32669 20.7034 4.06102 21.5003 4.06102C22.2973 4.06102 23.0715 4.32669 23.7005 4.81601L38.7218 16.4977C40.071 17.5494 39.3256 19.7083 37.62 19.7083H35.8337V34.0417C35.8337 34.992 35.4562 35.9035 34.7841 36.5755C34.1121 37.2475 33.2007 37.625 32.2503 37.625H10.7503C9.79999 37.625 8.88855 37.2475 8.21655 36.5755C7.54454 35.9035 7.16702 34.992 7.16702 34.0417V19.7083H5.38072C3.67327 19.7083 2.93152 17.5476 4.27885 16.4995L19.3002 4.8178V4.81601ZM10.0785 16.5281C10.4888 16.8596 10.7503 17.3666 10.7503 17.9346V34.0417H32.2503V17.9346C32.2503 17.3666 32.5119 16.8596 32.9222 16.5281L21.5003 7.64505L10.0785 16.5281Z" fill="#2B3445"/>
</svg>
