<svg width="43" height="46" viewBox="0 0 43 46" fill="none" xmlns="http://www.w3.org/2000/svg">
<path d="M24.5118 7.33282C24.7561 7.33572 24.9931 7.41396 25.1888 7.55628C25.3845 7.6986 25.5288 7.89764 25.6009 8.12475L26.8244 11.976C27.3544 12.236 27.8609 12.5271 28.344 12.8539L32.4056 12.0534C32.6451 12.0066 32.8937 12.0349 33.1156 12.1344C33.3375 12.2339 33.5213 12.3993 33.6405 12.6068L36.7746 18.0298C36.8943 18.2372 36.9432 18.4762 36.9143 18.7123C36.8854 18.9484 36.7801 19.1694 36.6137 19.3435L33.7981 22.2961C33.8318 22.869 33.825 23.4436 33.7777 24.0156L36.5226 27.0385C36.6848 27.2164 36.7848 27.4399 36.8081 27.6766C36.8315 27.9133 36.7769 28.1511 36.6524 28.3556L33.3907 33.7051C33.2663 33.9094 33.0785 34.0699 32.8543 34.1637C32.6301 34.2574 32.3811 34.2796 32.143 34.2269L28.1015 33.3304C27.6132 33.6434 27.0976 33.9247 26.5639 34.1721L25.2471 37.9933C25.1697 38.2186 25.0208 38.4142 24.8218 38.5518C24.6227 38.6895 24.3839 38.7621 24.1397 38.7592L17.7439 38.6834C17.4996 38.6805 17.2626 38.6023 17.0669 38.46C16.8712 38.3177 16.7269 38.1186 16.6549 37.8915L15.4336 34.0425C14.905 33.7833 14.3957 33.4885 13.9095 33.1601L9.85011 33.9629C9.61064 34.0097 9.36204 33.9813 9.14011 33.8819C8.91818 33.7824 8.73438 33.617 8.61518 33.4095L5.48107 27.9865C5.3614 27.779 5.3125 27.5401 5.34142 27.304C5.37034 27.0678 5.4756 26.8468 5.64201 26.6728L8.45768 23.7157C8.42417 23.1442 8.43096 22.5712 8.47799 22.0007L5.73314 18.9778C5.5709 18.7998 5.47091 18.5764 5.44758 18.3397C5.42426 18.1029 5.4788 17.8652 5.60336 17.6607L8.86504 12.3111C8.98945 12.1069 9.17725 11.9464 9.40144 11.8526C9.62563 11.7589 9.87466 11.7367 10.1127 11.7894L14.1519 12.6881C14.6448 12.3729 15.1605 12.0894 15.6965 11.842L17.0109 8.02302C17.088 7.79841 17.2363 7.60335 17.4344 7.46577C17.6325 7.32818 17.8703 7.25512 18.1138 7.25705L24.5095 7.33279L24.5118 7.33282ZM23.6408 9.56756L18.9339 9.51182L17.5764 13.4628L16.6878 13.8721C16.2509 14.0737 15.8288 14.3043 15.4243 14.562L14.6011 15.0911L10.4215 14.1615L8.0211 18.1024L10.857 21.2297L10.7765 22.1806C10.7378 22.6496 10.7323 23.1206 10.7598 23.5903L10.8178 24.5429L7.90399 27.6021L10.2127 31.5987L14.4131 30.7706L15.2235 31.3168C15.6218 31.584 16.0384 31.8245 16.4704 32.0365L17.3491 32.4667L18.6149 36.4487L23.3264 36.5045L24.6885 32.5514L25.5749 32.1443C26.0113 31.9431 26.4327 31.7125 26.8361 31.4543L27.6569 30.9274L31.8388 31.8548L34.2392 27.9139L31.401 24.7866L31.4815 23.8357C31.5203 23.366 31.5259 22.8942 31.4982 22.4238L31.4403 21.4712L34.354 18.4142L32.0453 14.4176L27.8426 15.2434L27.0345 14.6995C26.6374 14.4317 26.2215 14.1913 25.79 13.9799L24.9135 13.5519L23.6431 9.56759L23.6408 9.56756ZM21.2076 16.2739C23.0434 16.2957 24.7956 17.026 26.0787 18.3043C27.3619 19.5826 28.0708 21.3041 28.0497 23.0901C28.0285 24.8761 27.279 26.5804 25.9659 27.8279C24.6529 29.0755 22.8839 29.7641 21.0481 29.7424C19.2123 29.7206 17.4601 28.9903 16.177 27.712C14.8939 26.4337 14.1849 24.7122 14.206 22.9262C14.2272 21.1401 14.9767 19.4359 16.2898 18.1884C17.6028 16.9408 19.3718 16.2522 21.2076 16.2739ZM21.181 18.5187C19.9572 18.5042 18.7778 18.9633 17.9025 19.7949C17.0271 20.6266 16.5274 21.7628 16.5133 22.9535C16.4992 24.1442 16.9719 25.2918 17.8273 26.144C18.6827 26.9962 19.8508 27.4831 21.0747 27.4976C22.2985 27.5121 23.4779 27.053 24.3532 26.2213C25.2286 25.3896 25.7283 24.2535 25.7424 23.0628C25.7565 21.8721 25.2839 20.7244 24.4284 19.8722C23.573 19.02 22.4049 18.5331 21.181 18.5187Z" fill="#ECC263"/>
</svg>
