<svg width="41" height="44" viewBox="0 0 41 44" fill="none" xmlns="http://www.w3.org/2000/svg">
<path d="M23.3322 6.28571C23.5765 6.28572 23.8145 6.36115 24.0118 6.50114C24.2092 6.64113 24.3558 6.83845 24.4306 7.06469L25.6997 10.9012C26.2327 11.1549 26.7426 11.44 27.2295 11.761L31.2814 10.9124C31.5203 10.8628 31.7692 10.8883 31.9923 10.9851C32.2154 11.0819 32.4011 11.2451 32.5228 11.4512L35.7209 16.8367C35.843 17.0427 35.8947 17.2811 35.8686 17.5175C35.8425 17.754 35.7398 17.9762 35.5755 18.1522L32.795 21.138C32.8355 21.7105 32.8355 22.285 32.795 22.8576L35.5755 25.8478C35.7398 26.0238 35.8425 26.246 35.8686 26.4825C35.8947 26.7189 35.843 26.9573 35.7209 27.1633L32.5228 32.551C32.4008 32.7567 32.2149 32.9195 31.9918 33.0159C31.7688 33.1123 31.52 33.1374 31.2814 33.0876L27.2295 32.239C26.7449 32.5578 26.2327 32.8451 25.702 33.0988L24.4306 36.9353C24.3558 37.1615 24.2092 37.3589 24.0118 37.4989C23.8145 37.6388 23.5765 37.7143 23.3322 37.7143H16.936C16.6918 37.7143 16.4538 37.6388 16.2564 37.4989C16.0591 37.3589 15.9124 37.1615 15.8377 36.9353L14.5709 33.101C14.0393 32.8481 13.5266 32.5593 13.0365 32.2367L8.98691 33.0876C8.74801 33.1372 8.49908 33.1117 8.27599 33.0149C8.0529 32.9181 7.86715 32.7549 7.74551 32.5488L4.5474 27.1633C4.42528 26.9573 4.37355 26.7189 4.39968 26.4825C4.4258 26.246 4.52843 26.0238 4.69277 25.8478L7.47323 22.8576C7.43296 22.2865 7.43296 21.7135 7.47323 21.1424L4.69277 18.1522C4.52843 17.9762 4.4258 17.754 4.39968 17.5175C4.37355 17.2811 4.42528 17.0427 4.5474 16.8367L7.74551 11.449C7.86749 11.2433 8.05338 11.0805 8.27644 10.9841C8.49951 10.8877 8.74826 10.8626 8.98691 10.9124L13.0365 11.7633C13.5256 11.4422 14.0379 11.1527 14.5709 10.899L15.84 7.06469C15.9145 6.83918 16.0604 6.64238 16.2569 6.50246C16.4533 6.36254 16.6903 6.28667 16.9337 6.28571H23.3299H23.3322ZM22.4877 8.53061H17.7806L16.4699 12.4973L15.5862 12.9171C15.1517 13.124 14.7323 13.3595 14.3309 13.622L13.5141 14.1608L9.3238 13.2808L6.97021 17.2498L9.84297 20.3433L9.77375 21.2951C9.74059 21.7645 9.74059 22.2355 9.77375 22.7049L9.84297 23.6567L6.96559 26.7502L9.32149 30.7192L13.5118 29.8414L14.3286 30.378C14.73 30.6405 15.1494 30.876 15.5839 31.0829L16.4676 31.5027L17.7806 35.4694H22.4923L23.8076 31.5004L24.689 31.0829C25.123 30.8765 25.5417 30.641 25.942 30.378L26.7565 29.8414L30.9491 30.7192L33.3027 26.7502L30.4276 23.6567L30.4968 22.7049C30.5301 22.2348 30.5301 21.763 30.4968 21.2929L30.4276 20.341L33.305 17.2498L30.9491 13.2808L26.7565 14.1563L25.942 13.622C25.5417 13.359 25.123 13.1234 24.689 12.9171L23.8076 12.4996L22.49 8.53061H22.4877ZM20.1341 15.2653C21.9701 15.2653 23.7308 15.9749 25.029 17.2379C26.3271 18.5009 27.0565 20.2138 27.0565 22C27.0565 23.7862 26.3271 25.4991 25.029 26.7621C23.7308 28.0251 21.9701 28.7347 20.1341 28.7347C18.2982 28.7347 16.5375 28.0251 15.2393 26.7621C13.9411 25.4991 13.2118 23.7862 13.2118 22C13.2118 20.2138 13.9411 18.5009 15.2393 17.2379C16.5375 15.9749 18.2982 15.2653 20.1341 15.2653ZM20.1341 17.5102C18.9102 17.5102 17.7364 17.9832 16.8709 18.8252C16.0055 19.6672 15.5193 20.8092 15.5193 22C15.5193 23.1908 16.0055 24.3328 16.8709 25.1748C17.7364 26.0168 18.9102 26.4898 20.1341 26.4898C21.3581 26.4898 22.5319 26.0168 23.3973 25.1748C24.2628 24.3328 24.749 23.1908 24.749 22C24.749 20.8092 24.2628 19.6672 23.3973 18.8252C22.5319 17.9832 21.3581 17.5102 20.1341 17.5102Z" fill="#2B3445"/>
</svg>
