<svg width="15" height="15" viewBox="0 0 15 15" fill="none" xmlns="http://www.w3.org/2000/svg">
<path d="M6.05808 13.1028L6.10517 8.10306L1.1054 8.05596C0.840191 8.05346 0.58684 7.94572 0.401079 7.75642C0.215317 7.56713 0.112362 7.31179 0.11486 7.04659C0.117358 6.78138 0.225106 6.52803 0.4144 6.34227C0.603695 6.15651 0.859031 6.05355 1.12424 6.05605L6.12401 6.10315L6.17111 1.10337C6.17361 0.838166 6.28136 0.584816 6.47065 0.399054C6.65995 0.213293 6.91528 0.110336 7.18049 0.112834C7.44569 0.115333 7.69904 0.223081 7.8848 0.412376C8.07056 0.60167 8.17352 0.857005 8.17102 1.12221L8.12392 6.12199L13.1237 6.16909C13.3889 6.17158 13.6423 6.27933 13.828 6.46863C14.0138 6.65792 14.1167 6.91326 14.1142 7.17846C14.1117 7.44367 14.004 7.69702 13.8147 7.88278C13.6254 8.06854 13.3701 8.1715 13.1049 8.169L8.10508 8.1219L8.05799 13.1217C8.05549 13.3869 7.94774 13.6402 7.75845 13.826C7.56915 14.0118 7.31382 14.1147 7.04861 14.1122C6.78341 14.1097 6.53006 14.002 6.34429 13.8127C6.15853 13.6234 6.05558 13.368 6.05808 13.1028V13.1028Z" fill="#ECC263"/>
</svg>
