<svg width="35" height="30" viewBox="0 0 35 30" fill="none" xmlns="http://www.w3.org/2000/svg">
<path d="M32.9994 12.6282C32.9994 12.6282 36.0724 13.9842 32.8218 15.7797C31.4957 16.5341 26.5778 18.8415 21.3954 21.5012L5.88037 29.1849C5.88037 29.1849 3.68301 30.4018 2.41972 29.5492C1.15774 28.6965 1.45111 26.0225 1.56631 25.4881C1.64044 25.0722 2.20166 18.175 2.95979 15.3889C3.15799 14.6173 3.85232 13.4371 5.928 13.5882L20.2869 14.1019C21.9795 14.1278 25.1317 13.2228 19.5364 12.1857L3.8869 9.2698C3.8869 9.2698 2.17573 8.88711 1.4998 6.5555L0.0802093 1.47289C0.0802093 1.47289 0.250356 -0.846082 3.66408 0.753516C12.9405 4.04925 23.4555 8.67339 32.9984 12.627L32.9994 12.6282Z" fill="#ECC263"/>
</svg>
