<svg width="40" height="40" viewBox="0 0 40 40" fill="none" xmlns="http://www.w3.org/2000/svg">
<path d="M28.3335 21.6666H21.6668V28.3333H18.3335V21.6666H11.6668V18.3333H18.3335V11.6666H21.6668V18.3333H28.3335M20.0002 3.33331C17.8115 3.33331 15.6442 3.76441 13.6221 4.60199C11.6 5.43957 9.76269 6.66722 8.21505 8.21487C5.08944 11.3405 3.3335 15.5797 3.3335 20C3.3335 24.4203 5.08944 28.6595 8.21505 31.7851C9.76269 33.3327 11.6 34.5604 13.6221 35.398C15.6442 36.2356 17.8115 36.6666 20.0002 36.6666C24.4204 36.6666 28.6597 34.9107 31.7853 31.7851C34.9109 28.6595 36.6668 24.4203 36.6668 20C36.6668 17.8113 36.2357 15.644 35.3982 13.6219C34.5606 11.5998 33.3329 9.76251 31.7853 8.21487C30.2376 6.66722 28.4003 5.43957 26.3782 4.60199C24.3561 3.76441 22.1889 3.33331 20.0002 3.33331Z" fill="#ECC263"/>
</svg>
